<?xml version="1.0" standalone="no"?>
<!DOCTYPE svg PUBLIC "-//W3C//DTD SVG 20010904//EN"
 "http://www.w3.org/TR/2001/REC-SVG-20010904/DTD/svg10.dtd">
<svg version="1.0" xmlns="http://www.w3.org/2000/svg"
 width="2000.000000pt" height="1250.000000pt" viewBox="0 0 2000.000000 1250.000000"
 preserveAspectRatio="xMidYMid meet">

<g transform="translate(0.000000,1250.000000) scale(0.100000,-0.100000)"
fill="#000000" stroke="none">
<path d="M3665 12472 c-7 -5 -8 -879 -5 -2605 l5 -2598 44 103 c24 57 54 126
66 153 12 28 91 212 175 410 85 198 158 366 163 373 8 9 98 12 416 10 l406 -3
37 -85 c20 -47 76 -177 125 -290 l88 -205 3 293 2 292 505 0 505 0 11 -27 c7
-16 15 -37 20 -48 4 -11 34 -96 67 -188 l58 -168 59 173 c32 95 66 192 76 216
l18 42 2258 -2 2258 -3 3 -103 3 -103 49 35 c86 62 186 108 325 149 67 20 97
21 790 25 396 2 765 1 821 -3 l101 -7 33 -76 c19 -43 46 -104 60 -137 15 -33
53 -122 85 -197 32 -76 62 -138 66 -138 5 0 9 126 9 280 l0 280 423 0 423 0
109 -162 110 -163 3 163 2 162 428 -2 427 -3 0 -980 0 -980 -426 -3 -427 -2
-69 107 c-39 60 -85 132 -102 161 -18 28 -36 52 -39 52 -4 0 -7 -71 -7 -157
l0 -158 -622 -3 -621 -2 -61 152 -60 153 -163 3 -164 2 -60 -152 -61 -153
-458 -3 c-493 -2 -532 1 -668 52 -87 33 -237 120 -237 138 0 5 -4 8 -10 8 -5
0 -11 -44 -12 -97 l-3 -98 -635 -3 -636 -2 -113 140 c-62 77 -117 143 -123
146 -5 4 -9 -46 -8 -128 1 -73 1 -139 1 -145 -1 -10 -478 -13 -2351 -13
l-2349 0 -15 29 c-9 16 -29 64 -46 107 -17 44 -35 88 -40 99 -5 11 -14 32 -20
48 l-10 27 -162 -2 -162 -3 -60 -150 -61 -150 -287 -3 -288 -2 0 -3170 0
-3170 6228 2 6227 3 3 1948 c1 1071 0 1947 -2 1947 -2 0 -28 -12 -58 -27 -98
-51 -145 -67 -253 -89 -59 -12 -400 -14 -2172 -14 l-2102 0 -117 145 c-65 80
-120 145 -123 145 -3 0 -6 -64 -6 -142 l0 -143 -415 0 -415 0 -3 258 c-1 141
-4 257 -7 257 -3 0 -22 -7 -42 -15 -92 -36 -166 -45 -370 -45 l-203 0 -2 -228
-3 -227 -622 -3 -623 -2 -107 145 c-60 79 -110 145 -113 145 -3 0 -44 -50 -90
-112 -47 -61 -98 -126 -114 -145 l-28 -33 -1029 0 -1029 0 2 988 3 987 1029 3
c797 2 1032 -1 1044 -10 8 -7 59 -71 114 -143 55 -71 103 -131 106 -132 4 -1
45 48 92 108 47 61 99 125 116 144 l32 35 3756 0 3756 0 0 3354 c0 3049 -1
3354 -16 3360 -23 9 -12427 7 -12439 -2z"/>
<path d="M4273 8033 c-26 -65 -314 -736 -333 -778 -10 -22 -57 -132 -105 -245
-48 -113 -96 -225 -107 -250 -43 -93 -58 -133 -55 -137 5 -5 388 -6 392 -1 1
2 12 30 24 63 13 33 29 74 36 90 8 17 23 53 33 80 l20 50 342 0 342 0 56 -143
57 -143 203 -2 c111 -1 202 -1 202 1 0 3 -45 112 -65 157 -41 92 -61 138 -126
291 -69 165 -97 228 -124 289 -7 17 -47 109 -88 205 -41 96 -105 247 -143 335
-37 88 -73 163 -78 167 -6 4 -114 8 -239 8 l-228 0 -16 -37z m265 -330 c22
-58 93 -239 102 -258 44 -98 88 -221 82 -227 -5 -5 -98 -7 -208 -6 l-199 3 3
24 c1 13 9 37 17 55 7 17 48 117 90 221 43 105 79 196 82 203 8 20 20 14 31
-15z"/>
<path d="M5445 8059 c-3 -8 -4 -335 -3 -727 l3 -714 175 0 175 0 2 527 c1 290
3 529 6 531 7 7 26 -40 118 -296 50 -140 109 -304 131 -365 22 -60 50 -139 63
-175 13 -36 36 -100 52 -144 l29 -78 155 0 154 1 13 25 c11 22 79 206 102 276
5 14 45 126 90 250 45 124 88 243 95 265 42 125 84 230 94 233 8 3 11 -139 11
-525 l0 -528 173 2 172 1 0 724 0 723 -280 0 -279 0 -34 -95 c-19 -52 -45
-124 -57 -160 -36 -100 -98 -276 -166 -475 -62 -180 -83 -223 -93 -194 -3 8
-19 55 -36 104 -17 50 -35 99 -39 110 -5 11 -16 40 -24 65 -15 42 -90 253
-188 523 l-42 117 -117 0 c-64 0 -192 3 -283 7 -138 5 -167 4 -172 -8z"/>
<path d="M7530 8063 c0 -7 0 -1423 0 -1446 0 -4 264 -6 588 -5 l587 3 3 152 3
153 -413 2 -413 3 0 130 0 130 403 3 402 2 0 150 0 150 -402 2 -403 3 -3 119
c-1 66 1 123 6 128 5 5 192 9 415 8 l407 0 0 160 0 160 -590 0 c-324 0 -590
-3 -590 -7z"/>
<path d="M8935 8058 c-3 -7 -4 -334 -3 -726 l3 -714 175 0 175 0 3 253 c2 187
6 255 15 261 24 16 134 9 155 -9 10 -10 111 -127 222 -260 112 -134 206 -243
209 -243 205 -5 421 -3 421 3 0 4 -28 38 -62 75 -35 37 -93 101 -129 142 -36
41 -112 126 -167 189 -56 63 -99 117 -97 121 2 4 24 10 48 13 63 9 156 60 215
118 147 144 172 394 57 574 -55 86 -141 149 -257 187 -59 20 -93 21 -520 25
-377 4 -459 2 -463 -9z m835 -318 c136 -38 161 -208 42 -282 -36 -22 -47 -23
-279 -26 l-243 -3 0 160 0 161 223 0 c122 0 238 -5 257 -10z"/>
<path d="M10410 7340 l0 -729 180 0 c107 0 180 4 180 9 0 6 0 330 0 720 0 391
0 715 0 720 0 6 -67 10 -180 10 l-180 0 0 -730z"/>
<path d="M11590 8060 c-111 -9 -167 -23 -257 -65 -209 -97 -324 -266 -359
-530 -37 -272 36 -527 195 -685 111 -111 228 -157 400 -161 l94 -2 74 148 c40
82 73 150 73 152 0 2 -34 3 -76 3 -235 0 -378 117 -405 331 -26 206 52 381
200 452 43 20 64 22 301 27 l255 5 0 165 0 165 -205 1 c-113 1 -243 -2 -290
-6z"/>
<path d="M12467 8063 c-3 -5 -73 -168 -157 -363 -84 -195 -160 -373 -170 -395
-73 -163 -290 -678 -288 -681 7 -6 377 -6 387 0 5 4 26 50 47 104 20 53 45
116 56 140 l18 42 339 0 339 0 11 -27 c21 -55 31 -79 68 -171 l38 -94 198 1
c108 0 199 0 201 1 4 0 -12 41 -49 125 -7 17 -95 221 -195 455 -99 234 -189
443 -199 465 -10 22 -38 85 -61 140 -64 152 -79 187 -98 225 l-18 35 -231 3
c-128 1 -234 -1 -236 -5z m316 -533 c3 -8 33 -80 66 -160 32 -80 57 -148 54
-152 -8 -14 -413 -10 -413 4 0 19 193 493 204 500 8 6 42 -67 89 -192z"/>
<path d="M13625 8058 c-3 -7 -4 -334 -3 -726 l3 -713 173 -2 172 -2 0 462 c0
273 4 464 9 468 10 5 34 -30 220 -320 57 -88 165 -257 242 -375 76 -118 140
-219 142 -223 1 -5 101 -8 222 -8 l220 0 3 726 2 725 -172 -2 -173 -3 -3 -452
c-1 -249 -6 -453 -10 -453 -5 0 -24 24 -42 53 -19 28 -97 149 -173 267 -77
118 -154 238 -171 265 -143 222 -202 311 -211 317 -5 4 -108 8 -228 8 -165 0
-219 -3 -222 -12z"/>
<path d="M6330 4775 l0 -725 590 0 590 0 0 150 0 150 -407 2 -408 3 -3 132 -3
133 403 2 403 3 3 148 3 147 -406 0 -406 0 3 133 3 132 408 0 407 0 0 158 0
157 -590 0 -590 0 0 -725z"/>
<path d="M7570 5491 c0 -6 5 -13 10 -16 6 -4 63 -72 128 -153 65 -81 191 -238
280 -349 89 -111 162 -205 162 -210 0 -4 -26 -40 -58 -79 -238 -294 -381 -471
-402 -499 -14 -18 -42 -53 -62 -77 -21 -25 -38 -48 -38 -52 0 -3 98 -6 218 -5
l217 0 155 210 c85 115 157 214 158 219 9 27 41 -7 195 -210 l168 -220 224 0
225 0 -122 153 c-67 83 -193 242 -281 351 -87 110 -161 205 -164 212 -4 11
259 348 503 646 35 42 64 80 64 83 0 3 -96 5 -212 5 l-213 0 -125 -162 c-69
-89 -147 -190 -173 -225 -27 -35 -52 -63 -57 -63 -5 0 -87 101 -182 225 l-173
224 -222 1 c-133 0 -223 -4 -223 -9z"/>
<path d="M9210 4776 l0 -726 185 0 185 0 0 229 0 229 273 4 c250 5 277 7 337
28 130 45 203 97 265 190 58 88 75 150 75 280 0 115 -17 183 -64 265 -53 90
-159 167 -281 206 -29 9 -168 14 -507 16 l-468 4 0 -725z m845 393 c51 -14
100 -65 115 -118 19 -73 -10 -146 -76 -191 -37 -25 -41 -25 -276 -28 l-238 -4
0 176 0 176 218 0 c127 0 233 -5 257 -11z"/>
<path d="M10710 4776 l0 -726 175 0 175 0 2 258 3 257 80 3 80 2 60 -72 c33
-40 131 -157 218 -260 l158 -188 216 0 215 0 -68 78 c-38 42 -142 159 -231
259 -90 100 -163 186 -163 191 0 5 19 12 42 16 120 19 247 120 307 242 29 58
35 83 39 159 12 235 -88 389 -306 474 l-67 26 -467 3 -468 3 0 -725z m854 389
c135 -68 133 -225 -4 -284 -45 -19 -67 -21 -268 -21 -191 0 -221 2 -226 16 -8
21 -8 278 0 299 6 15 30 16 233 13 202 -3 230 -5 265 -23z"/>
<path d="M12190 4775 l0 -725 590 0 590 0 0 150 0 150 -410 0 -410 0 0 135 0
135 398 2 397 3 3 148 3 147 -401 0 -401 0 3 133 3 132 408 0 407 0 0 158 0
157 -590 0 -590 0 0 -725z"/>
<path d="M13940 5490 c-273 -36 -430 -199 -430 -446 0 -196 93 -340 258 -402
63 -23 82 -25 327 -31 277 -7 288 -9 324 -60 44 -61 19 -145 -52 -180 -42 -20
-57 -21 -428 -21 l-384 0 3 -150 3 -150 447 3 c463 3 479 4 569 48 138 67 223
223 223 409 0 207 -105 344 -301 394 -51 12 -116 16 -298 16 -254 0 -266 2
-315 60 -34 41 -36 105 -4 145 41 53 59 55 418 55 l330 0 54 113 c29 61 61
130 71 152 10 22 20 43 22 48 5 9 -764 7 -837 -3z"/>
<path d="M15280 5490 c-182 -24 -311 -106 -382 -242 -33 -63 -33 -64 -33 -203
0 -132 2 -143 28 -200 38 -82 71 -121 131 -159 98 -62 134 -69 418 -75 288 -7
294 -8 332 -85 32 -66 -4 -138 -83 -165 -23 -7 -156 -11 -412 -11 l-379 0 0
-150 0 -150 436 0 c465 0 489 2 588 52 153 78 249 287 217 476 -24 144 -92
240 -206 293 -89 42 -145 49 -392 49 -237 0 -268 5 -307 49 -13 15 -21 41 -24
81 -4 56 -3 61 26 89 17 15 46 31 63 35 17 3 175 6 350 6 l319 0 14 23 c16 23
136 282 136 291 0 9 -776 5 -840 -4z"/>
</g>
</svg>
