<?xml version="1.0" standalone="no"?>
<!DOCTYPE svg PUBLIC "-//W3C//DTD SVG 20010904//EN"
 "http://www.w3.org/TR/2001/REC-SVG-20010904/DTD/svg10.dtd">
<svg version="1.0" xmlns="http://www.w3.org/2000/svg"
 width="360.000000pt" height="360.000000pt" viewBox="0 0 360.000000 360.000000"
 preserveAspectRatio="xMidYMid meet">

<g transform="translate(0.000000,360.000000) scale(0.100000,-0.100000)"
fill="#000000" stroke="none">
<path d="M963 2684 c-18 -9 -39 -31 -49 -52 -15 -32 -15 -41 -3 -76 8 -21 27
-49 42 -60 28 -21 32 -21 847 -21 815 0 819 0 847 21 56 42 60 122 8 174 l-25
25 -818 2 c-727 2 -821 1 -849 -13z"/>
<path d="M948 2000 c-61 -48 -59 -142 5 -180 31 -19 57 -20 851 -20 l818 0 34
34 c29 29 34 41 34 81 0 38 -5 52 -29 76 l-29 29 -830 0 c-809 0 -830 0 -854
-20z"/>
<path d="M963 1334 c-32 -16 -63 -66 -63 -101 0 -32 39 -84 75 -99 50 -21
1599 -21 1649 0 72 30 90 119 37 178 l-29 33 -819 2 c-728 2 -822 1 -850 -13z"/>
</g>
</svg>
