<?xml version="1.0" standalone="no"?>
<!DOCTYPE svg PUBLIC "-//W3C//DTD SVG 20010904//EN"
 "http://www.w3.org/TR/2001/REC-SVG-20010904/DTD/svg10.dtd">
<svg version="1.0" xmlns="http://www.w3.org/2000/svg"
 width="500.000000pt" height="500.000000pt" viewBox="0 0 500.000000 500.000000"
 preserveAspectRatio="xMidYMid meet">

<g transform="translate(0.000000,500.000000) scale(0.100000,-0.100000)"
fill="#000000" stroke="none">
<path d="M0 2500 l0 -2500 2500 0 2500 0 0 2500 0 2500 -2500 0 -2500 0 0
-2500z m3550 1311 l385 -6 60 -29 c62 -31 140 -101 164 -149 l15 -28 -720
-720 c-829 -830 -774 -784 -949 -784 -173 0 -113 -49 -944 780 l-724 722 31
45 c39 57 89 101 155 136 l52 27 335 5 c481 8 1689 9 2140 1z m644 -2197 c-8
-28 -20 -57 -25 -65 -6 -11 -112 89 -446 423 l-438 438 460 460 460 460 3
-832 c2 -738 0 -839 -14 -884z m-2918 1246 l451 -448 -438 -438 -438 -438 -18
39 c-17 37 -18 99 -21 894 -1 470 1 851 5 847 5 -4 211 -209 459 -456z m1011
-979 c98 -49 229 -64 328 -37 114 30 141 49 335 241 103 102 191 185 196 185
5 0 205 -196 444 -435 l435 -435 -30 -14 c-76 -35 -94 -36 -1486 -36 -1234 0
-1381 2 -1430 16 -108 32 -139 -11 347 475 l439 439 190 -189 c111 -110 208
-198 232 -210z"/>
</g>
</svg>
