<?xml version="1.0" standalone="no"?>
<!DOCTYPE svg PUBLIC "-//W3C//DTD SVG 20010904//EN"
 "http://www.w3.org/TR/2001/REC-SVG-20010904/DTD/svg10.dtd">
<svg version="1.0" xmlns="http://www.w3.org/2000/svg"
 width="512.000000pt" height="512.000000pt" viewBox="0 0 512.000000 512.000000"
 preserveAspectRatio="xMidYMid meet">

<g transform="translate(0.000000,512.000000) scale(0.100000,-0.100000)"
fill="#000000" stroke="none">
<path d="M2420 4684 c-455 -30 -881 -168 -1240 -401 -319 -208 -609 -504 -803
-819 -343 -561 -457 -1239 -316 -1884 77 -352 230 -686 453 -988 66 -90 63
-91 85 3 55 229 237 463 496 637 119 79 341 187 492 239 l122 41 53 -44 c161
-135 325 -218 529 -269 81 -20 118 -23 269 -23 145 0 190 4 265 22 180 43 336
117 484 230 l84 65 71 -23 c178 -57 379 -158 538 -270 244 -172 424 -425 460
-645 20 -127 14 -125 90 -31 629 779 745 1854 296 2750 -200 400 -523 758
-908 1009 -260 169 -578 296 -895 358 -161 32 -474 53 -625 43z m380 -973
c434 -125 742 -543 767 -1041 20 -394 -148 -775 -443 -1002 -188 -144 -439
-217 -659 -190 -223 28 -401 115 -567 277 -235 232 -363 570 -345 915 26 522
361 951 822 1054 102 23 324 16 425 -13z"/>
</g>
</svg>
