<?xml version="1.0" standalone="no"?>
<!DOCTYPE svg PUBLIC "-//W3C//DTD SVG 20010904//EN"
 "http://www.w3.org/TR/2001/REC-SVG-20010904/DTD/svg10.dtd">
<svg version="1.0" xmlns="http://www.w3.org/2000/svg"
 width="920.000000pt" height="512.000000pt" viewBox="0 0 920.000000 512.000000"
 preserveAspectRatio="xMidYMid meet">

<g transform="translate(0.000000,512.000000) scale(0.100000,-0.100000)"
fill="#000000" stroke="none">
<path d="M4325 4990 c-705 -80 -1297 -436 -1684 -1012 -514 -768 -504 -1816
25 -2565 24 -34 44 -69 44 -78 0 -8 -68 -286 -151 -616 -83 -331 -148 -603
-146 -605 2 -2 73 23 158 57 85 33 199 78 254 99 55 22 177 69 270 105 94 37
262 103 375 147 l205 79 50 -20 c244 -98 532 -151 822 -151 1181 0 2163 896
2274 2074 15 166 7 424 -20 581 -102 601 -418 1113 -911 1477 -285 211 -650
360 -1012 414 -125 18 -443 26 -553 14z m426 -100 c886 -88 1620 -685 1883
-1532 213 -684 70 -1441 -381 -2011 -91 -115 -270 -287 -394 -379 -147 -109
-260 -176 -406 -242 -321 -145 -629 -205 -985 -193 -255 9 -441 44 -677 130
l-120 43 -58 -22 c-32 -12 -283 -110 -558 -217 -275 -108 -501 -195 -502 -194
-1 2 59 247 134 546 89 354 133 548 127 557 -327 459 -470 905 -451 1409 7
184 26 322 68 483 72 279 224 583 408 812 71 90 241 260 331 333 442 357 1022
532 1581 477z"/>
<path d="M4300 4565 c-208 -29 -378 -80 -565 -170 -344 -166 -603 -403 -800
-731 -210 -350 -299 -765 -250 -1174 44 -372 176 -679 429 -994 l29 -36 -93
-328 c-51 -180 -95 -336 -98 -346 -4 -14 -1 -18 9 -13 29 12 537 211 621 243
l86 33 105 -49 c127 -60 305 -115 456 -141 1050 -179 2038 552 2175 1609 133
1026 -599 1971 -1623 2098 -139 17 -352 17 -481 -1z m-226 -854 l39 -6 67
-180 c37 -99 84 -219 104 -267 52 -126 50 -142 -33 -235 -38 -43 -81 -89 -96
-103 -44 -41 -48 -55 -26 -97 56 -110 258 -343 411 -475 116 -100 266 -208
290 -208 7 0 45 30 84 67 169 161 179 164 304 110 43 -19 160 -65 262 -102
102 -38 189 -72 194 -76 4 -4 12 -60 17 -126 l9 -118 -36 -52 c-52 -76 -160
-174 -229 -207 -74 -36 -156 -43 -292 -26 -331 41 -690 235 -1014 548 -357
344 -550 734 -553 1117 -1 116 0 122 32 187 39 79 103 153 189 218 l63 48 88
-5 c48 -3 105 -8 126 -12z"/>
</g>
</svg>
