<?xml version="1.0" standalone="no"?>
<!DOCTYPE svg PUBLIC "-//W3C//DTD SVG 20010904//EN"
 "http://www.w3.org/TR/2001/REC-SVG-20010904/DTD/svg10.dtd">
<svg version="1.0" xmlns="http://www.w3.org/2000/svg"
 width="340.000000pt" height="464.000000pt" viewBox="0 0 340.000000 464.000000"
 preserveAspectRatio="xMidYMid meet">

<g transform="translate(0.000000,464.000000) scale(0.100000,-0.100000)"
fill="#000000" stroke="none">
<path d="M1170 4535 c-124 -25 -207 -74 -266 -161 -38 -55 -69 -140 -225 -613
l-81 -243 -37 6 c-300 52 -432 62 -481 36 -55 -29 4 -158 116 -259 91 -81 133
-98 264 -111 193 -18 373 -44 965 -135 88 -14 176 -27 195 -30 19 -3 188 -29
375 -59 187 -30 361 -57 388 -61 26 -3 47 -9 47 -13 0 -4 -21 -20 -48 -37 -79
-49 -181 -127 -299 -228 -61 -53 -122 -101 -135 -106 -20 -7 -25 -20 -36 -80
-16 -95 -17 -91 26 -79 86 24 149 67 297 204 107 99 196 165 269 199 39 19 53
21 78 13 33 -12 113 -112 174 -221 22 -39 40 -62 42 -53 5 22 -36 219 -58 286
-10 30 -17 56 -16 58 2 1 48 -5 102 -14 172 -28 289 -8 423 72 83 49 118 80
105 93 -6 7 -62 16 -125 21 -144 13 -286 46 -298 69 -17 30 -30 172 -36 376
-13 448 -50 756 -101 833 -34 52 -165 84 -529 127 -288 34 -338 41 -476 71
-247 53 -478 67 -619 39z"/>
<path d="M1908 2707 c-12 -29 -37 -188 -42 -272 l-6 -80 15 44 c28 85 59 372
33 308z"/>
<path d="M1490 2670 c0 -24 30 -200 42 -247 29 -118 24 22 -7 171 -14 65 -35
111 -35 76z"/>
<path d="M964 2575 c-143 -31 -396 -167 -366 -197 4 -4 73 8 152 28 203 49
299 50 505 1 83 -20 177 -39 209 -43 l59 -7 -8 29 c-5 16 -14 54 -20 84 -9 42
-16 54 -28 52 -9 -2 -25 2 -36 7 -25 14 -314 61 -366 60 -22 0 -67 -7 -101
-14z"/>
<path d="M469 2013 c-22 -57 7 -330 60 -566 46 -202 143 -412 241 -522 36 -40
80 -100 98 -132 41 -73 178 -222 297 -323 49 -41 116 -100 150 -131 120 -110
202 -139 391 -139 183 0 268 30 384 135 37 33 114 102 172 153 144 125 259
256 306 347 11 22 32 51 47 65 96 88 191 275 250 494 65 242 101 594 64 631
-37 37 -71 -11 -88 -124 -12 -77 -48 -166 -79 -194 -10 -9 -47 -32 -82 -50
-56 -29 -72 -44 -117 -109 -28 -42 -61 -104 -73 -137 -33 -90 -36 -91 -130
-27 -87 60 -328 181 -479 241 -115 46 -186 54 -267 30 -135 -39 -436 -183
-567 -272 -89 -61 -94 -60 -122 15 -24 66 -87 171 -127 211 -18 19 -57 45 -85
57 -83 37 -132 120 -148 254 -11 81 -35 120 -76 120 -5 0 -14 -12 -20 -27z
m1401 -724 c183 -60 255 -93 332 -154 47 -38 57 -52 63 -86 19 -109 -26 -228
-104 -279 -25 -16 -86 -70 -136 -120 -49 -50 -103 -98 -118 -106 -26 -14 -31
-14 -53 1 -14 9 -34 30 -45 48 -18 28 -19 42 -14 112 4 44 11 89 17 100 6 11
41 52 79 90 80 82 94 120 59 155 -22 22 -27 22 -114 15 -114 -10 -148 -10
-262 0 -86 7 -93 6 -113 -14 -41 -41 -24 -84 71 -170 62 -57 74 -82 83 -181 7
-72 -10 -118 -57 -153 -36 -27 -61 -12 -159 88 -46 47 -112 106 -146 131 -78
57 -103 105 -110 212 -3 52 0 85 9 102 17 31 94 90 166 126 54 27 353 132 382
133 7 1 84 -22 170 -50z"/>
</g>
</svg>
