<?xml version="1.0" standalone="no"?>
<!DOCTYPE svg PUBLIC "-//W3C//DTD SVG 20010904//EN"
 "http://www.w3.org/TR/2001/REC-SVG-20010904/DTD/svg10.dtd">
<svg version="1.0" xmlns="http://www.w3.org/2000/svg"
 width="348.000000pt" height="532.000000pt" viewBox="0 0 348.000000 532.000000"
 preserveAspectRatio="xMidYMid meet">

<g transform="translate(0.000000,532.000000) scale(0.100000,-0.100000)"
fill="#000000" stroke="none">
<path d="M1190 5214 c-86 -18 -115 -30 -177 -72 -101 -68 -110 -87 -304 -667
-50 -148 -92 -272 -94 -274 -2 -2 -46 4 -97 13 -174 30 -331 48 -367 41 -20
-4 -47 -13 -60 -22 -19 -12 -22 -21 -18 -50 9 -50 59 -123 133 -193 100 -93
135 -107 320 -125 181 -18 257 -29 624 -85 146 -22 342 -52 435 -66 94 -14
307 -47 475 -74 168 -26 326 -51 353 -55 26 -3 47 -10 47 -14 0 -4 -19 -18
-42 -31 -60 -34 -234 -167 -340 -261 -49 -43 -98 -79 -109 -79 -13 0 -19 -7
-19 -21 0 -12 -7 -48 -16 -81 -8 -33 -13 -62 -11 -65 9 -8 119 36 169 68 28
18 96 75 152 127 115 107 217 183 293 219 49 23 54 23 83 8 35 -18 102 -105
167 -218 25 -43 47 -76 49 -74 8 8 -49 272 -71 330 -8 20 -11 37 -7 37 4 0 48
-7 97 -15 153 -25 244 -17 353 31 74 32 194 114 189 128 -4 11 -28 15 -208 35
-52 6 -125 20 -161 31 -54 17 -67 25 -72 45 -12 47 -24 228 -31 445 -10 346
-50 660 -93 735 -10 16 -32 38 -50 48 -48 28 -235 62 -532 97 -146 17 -331 44
-411 61 -289 59 -509 74 -649 43z"/>
<path d="M1921 3338 c-18 -106 -41 -292 -36 -296 12 -12 43 143 60 301 9 78
-10 74 -24 -5z"/>
<path d="M1520 3322 c0 -49 36 -237 50 -261 15 -26 12 25 -10 154 -23 132 -39
177 -40 107z"/>
<path d="M985 3255 c-74 -16 -148 -45 -237 -92 -72 -38 -147 -97 -137 -108 4
-3 76 10 160 31 208 50 296 50 504 0 83 -19 178 -38 211 -42 l62 -6 -19 68
c-10 38 -19 79 -19 93 0 20 -2 22 -15 11 -12 -10 -21 -10 -42 -1 -36 17 -307
61 -363 60 -25 -1 -72 -7 -105 -14z"/>
<path d="M490 2701 c-26 -49 -3 -288 50 -535 52 -236 146 -448 249 -559 32
-34 70 -85 86 -114 40 -74 168 -218 291 -325 59 -51 135 -118 169 -148 120
-107 212 -140 395 -140 185 0 276 32 397 142 39 35 116 103 173 153 123 107
231 228 284 319 22 37 51 77 65 89 163 137 324 633 326 999 0 124 -7 145 -44
133 -27 -8 -47 -47 -55 -110 -21 -149 -62 -218 -163 -267 -60 -29 -73 -41
-119 -110 -29 -42 -62 -104 -74 -137 -33 -89 -38 -91 -114 -37 -75 53 -358
197 -495 251 -113 45 -196 54 -277 30 -127 -37 -476 -206 -579 -280 -30 -22
-60 -40 -67 -40 -13 0 -23 17 -63 109 -14 32 -45 87 -70 122 -37 52 -56 68
-108 93 -35 16 -76 43 -90 60 -30 36 -62 117 -71 181 -13 84 -17 97 -37 119
-25 26 -45 27 -59 2z m1406 -732 c175 -56 285 -109 354 -168 l45 -39 -1 -84
c-1 -100 -23 -159 -78 -203 -21 -17 -90 -80 -154 -141 -65 -61 -127 -114 -139
-118 -29 -9 -65 15 -88 57 -15 29 -17 47 -10 123 l7 89 73 75 c89 91 104 123
77 159 -23 31 -67 37 -174 22 -50 -7 -103 -7 -173 1 -116 13 -147 8 -163 -27
-17 -38 4 -79 72 -143 77 -73 84 -85 91 -178 6 -66 4 -88 -10 -117 -21 -45
-58 -71 -88 -61 -12 4 -72 55 -134 113 -61 58 -136 129 -166 156 -52 48 -55
54 -67 123 -23 139 7 191 155 269 64 34 358 139 396 142 9 0 88 -22 175 -50z"/>
<path d="M287 573 c-4 -3 -7 -116 -7 -250 l0 -244 43 3 42 3 5 145 c6 164 -2
164 85 7 27 -48 52 -84 56 -80 4 5 17 25 28 45 20 37 37 65 77 135 11 18 22
33 27 33 4 0 7 -66 7 -146 l0 -145 43 3 42 3 3 215 c2 118 1 229 -3 246 -5 30
-8 32 -47 30 l-42 -1 -65 -117 c-36 -64 -69 -119 -72 -122 -3 -4 -30 38 -59
91 -79 145 -86 153 -124 153 -18 0 -36 -3 -39 -7z"/>
<path d="M878 574 c-5 -4 -8 -117 -8 -251 l0 -244 43 3 42 3 3 93 3 93 42 -3
c42 -3 43 -4 97 -96 l55 -92 53 0 c63 0 64 -6 -7 114 l-49 83 34 32 c42 40 59
96 45 149 -26 93 -66 114 -226 120 -66 2 -123 1 -127 -4z m248 -107 c24 -25
25 -53 3 -80 -19 -25 -26 -27 -95 -27 l-74 0 0 59 0 60 48 4 c61 5 104 0 118
-16z"/>
<path d="M1737 573 c-4 -3 -7 -116 -7 -250 l0 -244 43 3 42 3 5 145 5 145 20
-31 c11 -17 40 -67 64 -112 25 -44 48 -79 52 -76 4 2 34 51 66 109 32 58 61
105 65 105 4 0 9 -64 10 -142 l3 -143 43 -3 42 -3 0 246 c0 271 2 263 -63 251
-28 -5 -38 -17 -82 -97 -27 -50 -58 -105 -68 -122 l-19 -31 -27 50 c-124 221
-111 204 -151 204 -20 0 -40 -3 -43 -7z"/>
<path d="M2441 561 c-10 -10 -27 -43 -36 -72 -10 -30 -45 -124 -78 -209 -81
-213 -80 -202 -22 -198 l48 3 21 60 21 60 86 3 86 3 16 -38 c9 -21 21 -50 27
-65 8 -25 14 -28 55 -28 25 0 45 2 45 5 0 16 -170 465 -183 483 -14 18 -64 15
-86 -7z m73 -195 c9 -27 16 -53 16 -58 0 -4 -22 -8 -50 -8 l-50 0 19 48 c10
26 21 56 25 66 9 25 20 12 40 -48z"/>
<path d="M2797 573 c-4 -3 -7 -116 -7 -250 l0 -243 45 0 45 0 2 161 3 162 105
-159 105 -159 45 0 45 0 3 243 2 242 -45 0 c-40 0 -45 -3 -46 -22 0 -13 0 -80
1 -150 1 -86 -3 -128 -10 -128 -6 0 -53 65 -106 145 -52 80 -103 149 -114 155
-21 11 -63 13 -73 3z"/>
<path d="M1377 172 c-10 -10 -17 -26 -17 -35 0 -23 36 -57 60 -57 25 0 60 34
60 59 0 47 -71 69 -103 33z"/>
</g>
</svg>
