<?xml version="1.0" standalone="no"?>
<!DOCTYPE svg PUBLIC "-//W3C//DTD SVG 20010904//EN"
 "http://www.w3.org/TR/2001/REC-SVG-20010904/DTD/svg10.dtd">
<svg version="1.0" xmlns="http://www.w3.org/2000/svg"
 width="700.000000pt" height="483.000000pt" viewBox="0 0 700.000000 483.000000"
 preserveAspectRatio="xMidYMid meet">

<g transform="translate(0.000000,483.000000) scale(0.100000,-0.100000)"
fill="#000000" stroke="none">
<path d="M2075 4175 c-401 -65 -740 -237 -1012 -513 -103 -105 -173 -196 -255
-332 -120 -198 -195 -404 -233 -640 -20 -126 -20 -391 1 -517 25 -158 66 -311
111 -413 33 -77 98 -205 106 -208 4 -2 7 -8 7 -13 0 -5 24 -44 52 -87 210
-309 499 -540 843 -671 332 -126 727 -147 1075 -55 107 28 277 93 360 137 83
44 269 170 320 216 25 22 50 41 57 41 15 0 167 156 171 176 3 12 -25 14 -171
14 l-175 0 -44 61 c-23 34 -53 72 -64 85 -12 12 -19 25 -16 28 3 3 142 6 308
6 238 0 305 3 316 13 19 20 93 166 86 172 -3 3 -179 6 -392 5 -212 0 -396 2
-409 5 -24 6 -71 92 -83 152 l-6 28 483 0 483 0 12 25 c7 14 18 45 25 70 7 25
14 47 16 49 1 2 15 -10 30 -26 41 -43 128 -82 200 -89 86 -9 210 12 218 37 10
31 -2 37 -57 27 -101 -19 -213 9 -287 70 -41 34 -83 109 -101 181 -19 72 -14
228 10 320 18 72 69 177 103 213 59 63 35 65 -32 3 -26 -25 -51 -42 -54 -39
-10 10 -50 -96 -71 -188 -5 -21 -12 -28 -30 -28 -73 0 -101 -74 -152 -405 -10
-60 -19 -112 -21 -114 -5 -6 -183 -4 -189 2 -3 2 4 60 15 128 11 68 34 210 51
314 17 105 34 210 38 235 l7 45 85 0 85 0 -2 -37 c-1 -21 -1 -38 1 -38 2 0 21
18 43 39 30 30 50 41 87 46 l47 7 -6 42 c-4 22 -9 44 -12 49 -2 4 -245 7 -539
7 l-534 0 0 24 c0 13 9 54 20 90 l21 66 484 0 c266 0 486 3 489 8 2 4 -12 48
-32 97 l-37 90 -408 3 -408 2 7 23 c4 12 23 50 42 85 l36 62 301 0 c165 0 305
4 312 8 12 7 -45 100 -100 162 l-27 30 -160 0 c-121 0 -160 3 -160 13 0 6 32
43 70 80 39 37 70 72 70 77 0 5 -37 38 -82 73 -248 191 -480 299 -774 357
-143 29 -436 36 -569 15z m-934 -1315 c1 -5 3 -14 4 -20 1 -5 3 -121 4 -257 0
-136 5 -243 9 -237 9 10 34 76 51 134 5 19 37 114 69 210 l60 175 143 3 c78 1
146 -1 150 -5 4 -4 -1 -55 -11 -113 -9 -58 -28 -166 -40 -240 -12 -74 -30
-182 -40 -240 -10 -58 -24 -143 -30 -190 -7 -47 -16 -92 -20 -100 -6 -12 -26
-14 -100 -12 l-92 3 7 57 c3 31 13 93 20 137 8 44 16 94 19 110 26 151 47 297
44 307 -2 6 -19 -31 -37 -83 -114 -327 -181 -512 -191 -524 -5 -5 -35 -9 -68
-7 l-59 4 -6 150 c-4 83 -7 215 -8 292 0 155 -11 215 -23 131 -4 -28 -11 -75
-17 -105 -5 -30 -23 -138 -39 -240 -17 -102 -32 -195 -35 -207 -5 -22 -10 -23
-95 -23 -50 0 -90 3 -90 7 0 11 139 842 145 871 5 21 9 22 140 22 83 0 135 -4
136 -10z m1814 -105 l-6 -55 47 0 c45 0 46 -1 41 -27 -3 -16 -9 -56 -13 -90
l-7 -63 -49 0 c-30 0 -50 -5 -52 -12 -2 -7 -12 -62 -21 -123 -40 -245 -41
-242 33 -247 l47 -3 -3 -45 c-2 -25 -7 -61 -11 -80 -7 -34 -8 -35 -79 -49 -92
-17 -152 -4 -186 43 -34 45 -36 84 -15 241 30 217 86 542 96 557 2 5 45 8 95
8 l90 0 -7 -55z m486 -51 c75 -22 141 -90 159 -164 13 -53 9 -215 -5 -252 -6
-16 -28 -18 -198 -20 l-192 -3 3 -35 c1 -25 12 -44 36 -67 49 -45 120 -53 234
-24 47 11 87 19 90 17 8 -8 -23 -159 -35 -172 -16 -15 -104 -28 -198 -28 -160
-1 -276 79 -305 210 -15 62 -14 190 1 252 17 69 65 159 112 209 80 85 181 111
298 77z m-1400 -6 c22 -6 39 -15 39 -20 0 -4 7 -8 14 -8 22 0 67 -64 77 -110
6 -28 4 -81 -6 -168 -20 -158 -54 -393 -60 -409 -3 -9 -29 -13 -85 -13 l-80 0
0 30 c0 30 -14 41 -23 17 -2 -7 -26 -23 -53 -36 -70 -36 -158 -34 -213 2 -62
41 -76 76 -76 185 0 57 4 95 11 100 6 4 14 17 18 29 4 12 27 39 52 62 58 52
133 75 244 76 l85 0 3 37 c5 54 -21 68 -128 68 -47 0 -109 -6 -138 -14 -51
-13 -52 -13 -52 9 0 35 19 128 29 138 32 32 263 49 342 25z m625 -1 c4 -4 1
-42 -7 -85 l-14 -77 -88 4 c-107 4 -140 -11 -135 -62 3 -28 11 -36 68 -67 94
-50 107 -61 129 -111 26 -57 27 -133 1 -202 -23 -61 -46 -85 -110 -113 -38
-16 -68 -19 -191 -19 -96 0 -151 4 -160 12 -12 9 -13 26 -5 88 l10 77 36 -6
c19 -3 71 -8 115 -11 94 -7 128 5 133 48 5 38 -10 53 -87 92 -104 52 -141 105
-141 204 0 115 42 184 136 221 41 17 70 19 176 17 69 -1 130 -5 134 -10z"/>
<path d="M3310 2542 c-31 -14 -56 -38 -68 -65 -24 -55 -21 -57 92 -57 l103 0
-4 28 c-10 62 -15 72 -43 87 -31 16 -55 18 -80 7z"/>
<path d="M1847 2286 c-73 -20 -94 -49 -89 -121 1 -12 16 -29 32 -39 26 -15 36
-16 67 -5 21 7 43 17 49 23 18 18 41 68 49 105 11 52 -16 62 -108 37z"/>
<path d="M6041 2801 c-5 -9 -12 -45 -15 -81 -6 -59 -5 -68 13 -84 12 -11 21
-15 21 -10 0 5 7 45 14 88 8 43 12 84 10 91 -7 17 -34 14 -43 -4z"/>
<path d="M4386 2670 c-48 -25 -76 -49 -76 -66 0 -10 9 -8 33 6 42 26 111 26
179 0 77 -29 88 -27 88 15 0 43 -23 55 -120 61 -51 4 -73 0 -104 -16z"/>
<path d="M4690 2634 c-33 -11 -36 -15 -47 -75 -21 -113 -25 -108 60 -92 95 19
208 14 231 -10 10 -9 23 -17 30 -17 8 0 28 -3 45 -6 31 -6 31 -6 31 34 0 60
-23 72 -132 72 -48 0 -108 -5 -133 -12 -24 -7 -47 -9 -50 -6 -4 3 -2 29 3 56
5 28 6 54 3 59 -3 5 -22 3 -41 -3z"/>
<path d="M5263 2642 c-6 -4 -19 -64 -28 -132 -38 -295 -76 -527 -91 -558 -9
-19 -13 -36 -10 -39 4 -4 147 -7 197 -3 4 0 9 11 11 24 6 31 -6 36 -89 36 -62
0 -65 1 -60 23 3 12 11 56 17 97 7 41 29 179 49 305 42 251 42 271 4 247z"/>
<path d="M5629 2576 c-14 -13 -31 -38 -39 -55 -9 -24 -19 -31 -39 -31 -31 0
-64 -31 -81 -74 -13 -36 -6 -45 18 -23 34 31 44 22 35 -30 -4 -27 -8 -97 -8
-158 0 -102 2 -115 31 -175 22 -46 42 -73 70 -92 76 -53 184 -54 259 -2 44 29
43 29 38 0 -5 -24 -4 -25 87 -28 56 -2 94 1 96 7 15 47 12 50 -64 53 -62 2
-73 6 -71 20 3 32 -1 33 -28 14 -85 -59 -209 -56 -276 7 -117 108 -129 346
-26 530 17 29 29 55 27 57 -2 2 -15 -7 -29 -20z"/>
<path d="M5849 2507 c-51 -34 -49 -53 4 -49 62 5 85 -17 97 -95 8 -48 7 -77
-4 -123 -17 -75 -2 -76 34 -5 21 42 25 64 25 136 0 94 -12 130 -52 148 -37 17
-67 13 -104 -12z"/>
<path d="M4628 2322 c-41 -30 -108 -141 -86 -143 7 -1 17 -1 22 0 5 1 6 -12 3
-28 -19 -92 -19 -158 -2 -184 22 -34 70 -63 118 -71 54 -10 142 11 175 41 l27
24 -43 -5 c-178 -25 -276 160 -181 340 31 61 23 67 -33 26z"/>
<path d="M4915 2291 c-51 -9 -85 -28 -85 -47 0 -10 8 -15 23 -14 55 5 58 3 51
-42 -4 -24 -11 -48 -15 -54 -14 -18 1 -23 32 -12 46 16 80 68 82 125 2 45 0
48 -23 49 -14 1 -43 -1 -65 -5z"/>
<path d="M4975 2020 c-4 -6 -24 -21 -44 -35 -28 -17 -37 -30 -36 -47 1 -22 6
-23 84 -28 87 -5 106 2 99 37 -2 13 -14 19 -47 21 -40 3 -42 5 -37 27 6 25 -8
43 -19 25z"/>
</g>
</svg>
