<?xml version="1.0" standalone="no"?>
<!DOCTYPE svg PUBLIC "-//W3C//DTD SVG 20010904//EN"
 "http://www.w3.org/TR/2001/REC-SVG-20010904/DTD/svg10.dtd">
<svg version="1.0" xmlns="http://www.w3.org/2000/svg"
 width="1280.000000pt" height="720.000000pt" viewBox="0 0 1280.000000 720.000000"
 preserveAspectRatio="xMidYMid meet">

<g transform="translate(0.000000,720.000000) scale(0.100000,-0.100000)"
fill="#000000" stroke="none">
<path d="M7385 5315 c-40 -16 -89 -56 -107 -88 -5 -10 -29 -105 -53 -210 -24
-106 -71 -311 -105 -457 -33 -146 -80 -350 -104 -455 -24 -104 -56 -242 -71
-305 -15 -63 -35 -151 -46 -195 -30 -134 -66 -292 -104 -455 -77 -334 -77
-340 -13 -380 31 -19 46 -21 264 -18 l231 3 41 28 c23 15 50 44 61 65 10 20
44 150 75 287 86 381 82 369 160 426 37 27 45 29 142 29 633 0 1081 161 1327
477 139 178 205 418 177 644 -37 305 -201 482 -523 564 -163 41 -256 47 -797
51 -441 3 -521 2 -555 -11z m853 -465 c123 -16 188 -43 248 -104 55 -57 74
-106 74 -195 0 -170 -88 -314 -238 -390 -119 -60 -197 -75 -390 -76 l-174 0
-24 28 c-13 15 -27 39 -30 53 -8 32 112 556 136 596 21 36 63 68 109 84 44 16
178 18 289 4z"/>
<path d="M748 5307 c-35 -16 -67 -46 -84 -78 -15 -29 -89 -343 -279 -1174 -24
-104 -64 -278 -89 -385 -171 -743 -187 -814 -181 -841 9 -39 57 -77 109 -84
24 -4 129 -5 232 -3 161 3 194 6 224 22 73 39 88 70 134 266 20 85 51 219 69
297 37 157 58 199 122 235 37 21 56 23 260 29 315 10 515 44 717 124 338 134
559 362 639 660 30 109 33 348 6 444 -71 257 -260 408 -591 473 -105 21 -143
22 -686 24 -435 2 -581 0 -602 -9z m967 -480 c97 -27 162 -74 198 -141 19 -35
22 -56 21 -146 -1 -137 -23 -197 -105 -284 -102 -110 -229 -159 -454 -177
-166 -13 -220 -6 -258 33 -29 28 -30 32 -24 96 9 90 112 524 132 555 15 24 73
68 105 81 28 11 334 -2 385 -17z"/>
<path d="M11835 5295 c-22 -8 -56 -32 -76 -54 -30 -34 -40 -57 -58 -133 -23
-103 -246 -1115 -317 -1438 -24 -113 -56 -254 -70 -315 -14 -60 -36 -164 -50
-230 -14 -66 -32 -145 -40 -175 -23 -91 -19 -127 20 -166 l34 -34 207 0 c204
0 208 0 255 26 60 32 85 76 110 191 10 48 42 192 71 318 28 127 64 289 80 360
68 313 109 498 123 557 8 35 24 108 36 163 11 55 27 127 35 160 36 148 165
748 165 766 0 18 -9 19 -242 19 -182 -1 -253 -4 -283 -15z"/>
<path d="M12497 5283 c18 -4 23 -12 26 -51 l3 -47 2 47 c2 40 5 47 25 51 12 2
0 4 -28 4 -27 0 -40 -2 -28 -4z"/>
<path d="M12599 5275 c-4 -49 -3 -77 4 -82 4 -2 7 16 7 41 0 53 11 59 27 15
13 -34 29 -31 43 7 14 37 26 29 22 -15 -2 -21 1 -42 7 -45 7 -5 11 9 11 43 0
43 -3 51 -18 51 -11 0 -24 -12 -31 -27 l-13 -28 -14 28 c-16 29 -43 37 -45 12z"/>
<path d="M3545 4744 c-174 -10 -440 -47 -611 -84 l-52 -11 -37 -190 c-38 -194
-40 -254 -9 -266 8 -3 39 2 67 12 281 93 432 119 631 112 277 -10 380 -67 381
-211 0 -88 -5 -96 -63 -96 -131 0 -522 -45 -690 -80 -403 -84 -642 -252 -730
-514 -33 -99 -42 -286 -17 -372 25 -88 62 -149 127 -209 107 -99 239 -145 418
-145 218 0 382 54 598 198 50 33 93 58 95 56 4 -4 -13 -81 -38 -176 l-7 -27
234 -1 c273 -1 315 7 371 69 36 40 34 34 117 391 11 47 61 261 110 475 106
451 114 499 108 620 -4 73 -10 101 -34 150 -76 157 -254 250 -544 284 -99 12
-338 20 -425 15z m275 -1090 c0 -3 -21 -94 -46 -202 -36 -156 -50 -201 -67
-215 -40 -32 -193 -105 -254 -121 -77 -20 -192 -20 -268 -1 -96 25 -135 75
-135 172 0 221 148 311 585 357 154 16 185 18 185 10z"/>
<path d="M4818 4734 c-55 -23 -73 -68 -59 -147 13 -75 42 -267 116 -747 31
-201 67 -437 81 -525 14 -88 32 -205 40 -260 9 -55 19 -122 24 -150 5 -27 16
-102 25 -166 l17 -115 -172 -290 c-95 -159 -181 -303 -191 -320 -11 -17 -19
-47 -19 -67 0 -64 12 -67 278 -67 227 0 235 1 285 25 29 13 71 43 93 67 24 25
132 197 254 403 117 198 225 380 240 405 15 25 74 124 130 220 57 96 153 258
213 360 176 296 257 433 367 620 57 96 129 218 160 270 184 306 290 487 290
496 0 2 -124 4 -275 4 -424 0 -386 27 -678 -475 -22 -38 -59 -101 -82 -140
-23 -38 -117 -200 -210 -360 -92 -159 -170 -292 -172 -294 -8 -11 -15 19 -43
195 -122 772 -151 941 -168 973 -21 41 -68 76 -121 91 -60 16 -379 12 -423 -6z"/>
<path d="M10060 4740 c-158 -13 -520 -71 -547 -88 -7 -4 -28 -90 -49 -192 -38
-188 -41 -251 -10 -263 7 -3 40 4 72 14 278 93 457 125 634 115 286 -16 393
-87 375 -247 l-7 -58 -41 -5 c-23 -3 -107 -10 -187 -16 -188 -15 -421 -46
-537 -71 -512 -111 -759 -367 -741 -768 8 -172 65 -276 203 -371 108 -74 201
-94 402 -88 139 4 155 7 256 42 110 38 177 73 304 158 75 50 99 59 89 33 -5
-15 -26 -97 -40 -158 l-7 -28 263 3 c259 3 263 3 299 27 72 49 59 4 259 871
20 91 55 237 75 325 32 134 38 179 39 275 1 131 -17 191 -79 273 -74 97 -244
173 -449 202 -130 18 -437 26 -576 15z m377 -1092 c-3 -13 -22 -95 -41 -183
-20 -88 -40 -173 -44 -189 -6 -23 -26 -40 -93 -78 -121 -70 -201 -93 -324 -93
-222 0 -305 84 -261 262 42 172 171 235 581 283 201 24 188 24 182 -2z"/>
</g>
</svg>
