<?xml version="1.0" standalone="no"?>
<!DOCTYPE svg PUBLIC "-//W3C//DTD SVG 20010904//EN"
 "http://www.w3.org/TR/2001/REC-SVG-20010904/DTD/svg10.dtd">
<svg version="1.0" xmlns="http://www.w3.org/2000/svg"
 width="512.000000pt" height="512.000000pt" viewBox="0 0 512.000000 512.000000"
 preserveAspectRatio="xMidYMid meet">

<g transform="translate(0.000000,512.000000) scale(0.100000,-0.100000)"
fill="#000000" stroke="none">
<path d="M790 5105 c-195 -36 -349 -116 -497 -258 -111 -107 -194 -236 -242
-374 -52 -155 -51 -105 -51 -1913 0 -1808 -1 -1758 51 -1913 93 -271 325 -503
596 -596 155 -52 105 -51 1913 -51 1808 0 1758 -1 1913 51 271 93 503 325 596
596 52 155 51 105 51 1913 0 1808 1 1758 -51 1913 -93 271 -325 503 -596 596
-155 52 -103 51 -1922 50 -1371 -1 -1700 -3 -1761 -14z m849 -859 c26 -20 117
-169 236 -386 65 -117 138 -245 163 -283 93 -145 71 -198 -163 -387 -166 -135
-215 -190 -215 -242 0 -43 27 -102 111 -243 259 -434 513 -687 954 -947 176
-103 220 -115 282 -77 18 12 89 85 157 162 145 166 214 234 251 243 47 12 92
-3 187 -63 51 -33 197 -117 325 -187 263 -146 323 -188 335 -231 4 -16 3 -68
-3 -115 -31 -255 -120 -388 -337 -498 -183 -94 -326 -133 -482 -134 -158 0
-249 22 -540 129 -431 158 -750 362 -1109 708 -388 374 -635 744 -805 1205
-107 291 -128 382 -128 545 1 289 189 660 377 746 148 67 355 95 404 55z"/>
</g>
</svg>
