<?xml version="1.0" standalone="no"?>
<!DOCTYPE svg PUBLIC "-//W3C//DTD SVG 20010904//EN"
 "http://www.w3.org/TR/2001/REC-SVG-20010904/DTD/svg10.dtd">
<svg version="1.0" xmlns="http://www.w3.org/2000/svg"
 width="610.000000pt" height="342.000000pt" viewBox="0 0 610.000000 342.000000"
 preserveAspectRatio="xMidYMid meet">

<g transform="translate(0.000000,342.000000) scale(0.100000,-0.100000)"
fill="#000000" stroke="none">
<path d="M0 1710 l0 -1710 3050 0 3050 0 0 1710 0 1710 -3050 0 -3050 0 0
-1710z m4176 859 c115 -20 244 -62 244 -78 -1 -23 -76 -380 -81 -386 -3 -2
-36 7 -74 21 -163 59 -366 76 -473 40 -65 -22 -117 -65 -132 -110 -26 -81 35
-145 245 -256 219 -115 328 -206 384 -322 75 -154 57 -366 -43 -523 -182 -283
-615 -399 -1101 -294 -123 26 -189 52 -193 76 -3 18 72 390 80 399 3 2 35 -9
71 -26 230 -104 511 -119 640 -34 48 32 77 79 77 127 0 84 -53 135 -243 234
-309 161 -429 306 -430 518 0 136 37 245 122 352 109 139 333 247 566 274 82
9 257 3 341 -12z m-3205 -47 c77 -40 110 -98 137 -244 67 -363 165 -891 174
-940 6 -32 13 -58 17 -58 3 0 17 28 30 63 27 72 348 891 423 1080 l50 127 254
0 c140 0 254 -4 254 -9 0 -5 -160 -393 -355 -862 -439 -1055 -417 -1001 -428
-1016 -7 -10 -72 -13 -263 -13 l-253 0 -10 38 c-27 102 -93 359 -226 877 -174
680 -170 665 -198 706 -41 61 -253 152 -474 204 -70 17 -73 19 -73 46 l0 29
444 0 444 0 53 -28z m2039 18 c0 -9 -115 -554 -231 -1095 -23 -104 -67 -316
-100 -470 -32 -154 -61 -290 -64 -302 l-5 -23 -245 0 c-135 0 -245 1 -245 3 0
2 20 97 45 213 25 115 88 409 140 654 52 245 115 542 140 660 25 118 53 250
62 293 l16 77 243 0 c154 0 244 -4 244 -10z m2692 -167 c20 -98 55 -266 78
-373 23 -107 70 -334 105 -505 35 -170 88 -428 118 -573 39 -188 52 -265 43
-268 -6 -2 -108 -3 -226 -2 l-215 3 -27 129 c-15 71 -29 134 -31 140 -4 12
-595 19 -615 7 -8 -5 -73 -168 -107 -269 -3 -9 -63 -12 -254 -12 -137 0 -252
3 -254 8 -4 6 96 250 387 947 46 110 139 333 206 495 142 343 148 356 188 393
53 51 86 56 337 57 l231 0 36 -177z"/>
<path d="M5195 1687 c-65 -182 -120 -338 -123 -344 -3 -10 40 -13 193 -13
l198 0 -7 43 c-4 23 -29 146 -56 272 -27 127 -54 259 -61 295 -7 36 -15 68
-19 72 -3 5 -59 -142 -125 -325z"/>
</g>
</svg>
